<?xml version="1.0" encoding="UTF-8"?>
<svg width="24px" height="19px" viewBox="0 0 24 19" version="1.1" xmlns="http://www.w3.org/2000/svg" xmlns:xlink="http://www.w3.org/1999/xlink">
    <!-- Generator: Sketch 56.3 (81716) - https://sketch.com -->
    <title>Path</title>
    <desc>Created with Sketch.</desc>
    <g id="Cultural-Dive-Ins---45&quot;" stroke="none" stroke-width="1" fill="none" fill-rule="evenodd">
        <g id="&gt;-Full-Menu---NEW-BTNS" transform="translate(-488.000000, -1416.000000)" fill="#FFFFFF" fill-rule="nonzero">
            <g id="&gt;-Region-7" transform="translate(80.000000, 1378.000000)">
                <g id="Arrow" transform="translate(420.000000, 48.000000) rotate(-90.000000) translate(-420.000000, -48.000000) translate(395.000000, 23.000000)">
                    <path d="M32.6922397,21.5646256 C31.1481775,20.6230278 28.6240898,19.0808612 27.0801914,18.139123 L24.2580192,16.4167999 C22.7158059,15.4752021 21.4524631,16.1836846 21.4524631,17.9910286 L21.4524631,21.7135157 L21.4524631,21.7674527 L14,21.7665385 L14,28.2334998 L21.451527,28.2334998 L21.451527,28.2865217 L21.451527,32.0080726 C21.451527,33.8163317 22.7149165,34.5248352 24.2570831,33.583214 L27.0792553,31.8599782 C28.6233175,30.9183804 31.1474052,29.3762139 32.6913036,28.4344757 L35.5134758,26.7121526 C37.057538,25.7696421 37.057538,24.2293244 35.5143902,23.28665 L32.6922397,21.5646256 Z" id="Path" transform="translate(25.335818, 25.000000) rotate(-270.000000) translate(-25.335818, -25.000000) "></path>
                </g>
            </g>
        </g>
    </g>
</svg>