<?xml version="1.0" encoding="UTF-8"?>
<svg width="13px" height="20px" viewBox="0 0 13 20" version="1.1" xmlns="http://www.w3.org/2000/svg" xmlns:xlink="http://www.w3.org/1999/xlink">
    <!-- Generator: Sketch 57.1 (83088) - https://sketch.com -->
    <title>Path</title>
    <desc>Created with Sketch.</desc>
    <g id="Cultural-Dive-Ins---45&quot;" stroke="none" stroke-width="1" fill="none" fill-rule="evenodd">
        <g id="&gt;-Region-Menu---NEW-BTNS" transform="translate(-677.000000, -962.000000)" fill="#FFFFFF" fill-rule="nonzero">
            <g id="Country-Menus" transform="translate(55.000000, 949.000000)">
                <g id="Country-Advancer" transform="translate(321.000000, 0.000000)">
                    <g id="Right-Toggle" transform="translate(283.000000, 0.000000)">
                        <path d="M18.6666667,32.3333333 C19.1111111,32.7777778 19.7777778,33 20.2222222,33 C20.6666667,33 21.3333333,32.7777778 21.7777778,32.3333333 L29.5555556,24.5555556 C30.4444444,23.6666667 30.4444444,22.3333333 29.5555556,21.4444444 L21.7777778,13.6666667 C20.8888889,12.7777778 19.5555556,12.7777778 18.6666667,13.6666667 C17.7777778,14.5555556 17.7777778,15.8888889 18.6666667,16.7777778 L25.1111111,23 L18.8888889,29.2222222 C17.7777778,30.1111111 17.7777778,31.6666667 18.6666667,32.3333333 Z" id="Path" transform="translate(24.111111, 23.000000) rotate(180.000000) translate(-24.111111, -23.000000) "></path>
                    </g>
                </g>
            </g>
        </g>
    </g>
</svg>