
<svg width="63px" height="96px" viewBox="0 0 63 96" version="1.1" xmlns="http://www.w3.org/2000/svg" xmlns:xlink="http://www.w3.org/1999/xlink">
    <g id="Love-&amp;-Connections---55&quot;" stroke="none" stroke-width="1" fill="none" fill-rule="evenodd">
        <g id="Attract-Screen" transform="translate(-509.000000, -1187.000000)" fill="#FFFFFF" fill-rule="nonzero">
            <g id="Video-Background-(Non-Active)">
                <g id="ICO:-Hand-Interaction" transform="translate(509.000000, 1187.000000)">
                    <path d="M45.2455523,39.0422134 C43.7837974,39.0422134 42.4251905,39.4836436 41.2958794,40.2404133 C40.3252345,37.4754564 37.6906861,35.4929234 34.5928837,35.4929234 C33.2993403,35.4929234 32.0865713,35.838604 31.0419941,36.442587 L31.0419941,21.2957632 C31.0419941,17.3753257 27.8624193,14.1971831 23.9402151,14.1971831 C20.0180108,14.1971831 16.838436,17.3753257 16.838436,21.2957632 L16.838436,55.9331691 L13.253286,49.7263041 C11.2921839,46.3311057 6.94880392,45.1678249 3.55207536,47.1280435 C0.155346813,49.0882624 -1.00845834,53.4296858 0.952643807,56.8248842 C1.40433695,57.6068872 3.14359576,60.6148778 3.50505007,61.2437904 C6.26899116,66.0529087 7.22564,74.2021192 10.001874,79.0174804 C13.8757495,85.7366942 20.3604218,94.5889313 20.7243669,95.0937408 C21.297638,95.8888954 22.4072566,96.0689768 23.2027694,95.4959638 C23.9982822,94.9229508 24.1784448,93.8138321 23.6051737,93.0186775 C23.2478731,92.5230845 16.2584397,82.7990175 13.0701732,77.2335429 C10.904827,73.4536896 9.61377176,64.6727496 6.58021064,59.4691454 C6.21544683,58.8434495 4.47949754,55.8322425 4.02780436,55.0502391 C3.04725327,53.35264 3.62915587,51.1819283 5.32752013,50.2018188 C7.02588439,49.2217093 9.19757438,49.8033499 10.1781255,51.5009491 L16.8218763,63.0030798 C17.443543,64.3049093 20.389325,64.2390533 20.3893255,62.1125987 L20.3893255,21.2957632 C20.3893255,19.3355444 21.9791129,17.7464731 23.9402151,17.7464731 C25.9013172,17.7464731 27.4911046,19.3355444 27.4911046,21.2957632 L27.4911046,51.4647286 C27.4911046,52.4448381 28.2859983,53.2393736 29.2665494,53.2393736 C30.2471004,53.2393736 31.0419941,52.4448381 31.0419941,51.4647286 L31.0419941,42.5915035 C31.0419941,40.6312849 32.6317815,39.0422134 34.5928837,39.0422134 C36.5539856,39.0422134 38.1437732,40.6312849 38.1437732,42.5915035 L38.1437732,51.4647286 C38.1437732,52.4448381 38.9386668,53.2393736 39.919218,53.2393736 C40.8997691,53.2393736 41.6946628,52.4448381 41.6946628,51.4647286 L41.6946628,46.1407935 C41.6946628,44.1805749 43.2844503,42.5915035 45.2455523,42.5915035 C47.2066543,42.5915035 48.7964418,44.1805749 48.7964418,46.1407935 L48.7964418,55.0140186 C48.7964418,55.9941281 49.5913355,56.7886637 50.5718866,56.7886637 C51.5524378,56.7886637 52.3473314,55.9941281 52.3473314,55.0140186 L52.3473314,49.6900836 C52.3473314,47.729865 53.937119,46.1407935 55.8982209,46.1407935 C57.8593229,46.1407935 59.4491105,47.729865 59.4491105,49.6900836 L59.4491105,62.1125987 C59.4491097,73.735527 52.3473307,84.811461 52.3473314,94.0562092 C52.3473314,95.0363186 53.142225,95.8309859 54.1227761,95.8309859 C55.1033273,95.8309859 55.8982209,95.0363186 55.8982209,94.0562092 C55.8982202,86.09002 63,73.7805867 63,62.1125987 L63,49.6900836 C63,45.769646 59.8204252,42.5915035 55.8982209,42.5915035 C54.436466,42.5915035 53.0778591,43.0329337 51.948548,43.7897033 C50.9779031,41.0247464 48.3433547,39.0422134 45.2455523,39.0422134 Z" id="Shape"></path>
                    <path d="M13.3098592,31.056338 C11.1009073,28.5143806 9.76056338,25.1753312 9.76056338,21.5183204 C9.76056338,13.5545241 16.1168588,7.09859155 23.9577465,7.09859155 C31.7986342,7.09859155 38.1549296,13.5545241 38.1549296,21.5183204 C38.1549296,25.1753312 36.8145856,28.5143806 34.6056338,31.056338 L34.6056338,21.5183204 C34.6056338,15.5454731 29.8384123,10.7035238 23.9577465,10.7035238 C18.0770807,10.7035238 13.3098592,15.5454731 13.3098592,21.5183204 L13.3098592,31.056338 Z" id="Shape"></path>
                    <path d="M40.9957376,34.2338358 C43.6692763,30.6578358 45.2535211,26.2127936 45.2535211,21.39599 C45.2535211,9.57931103 35.7190781,0 23.9577465,0 C12.1964149,0 2.66197183,9.57931103 2.66197183,21.39599 C2.66197183,29.315527 6.94453753,36.2301102 13.3098592,39.9295775 L13.3098592,35.6612893 C8.99942861,32.408363 6.21126761,27.2293137 6.21126761,21.39599 C6.21126761,11.5487575 14.1566368,3.56599834 23.9577465,3.56599834 C33.7588561,3.56599834 41.7042254,11.5487575 41.7042254,21.39599 C41.7042254,25.6301327 40.2352428,29.5195615 37.7813882,32.5778875 C38.9526058,32.9450914 40.03696,33.5100389 40.9957376,34.2338358 Z" id="Shape"></path>
                </g>
            </g>
        </g>
    </g>
</svg>