
<svg width="73px" height="88px" viewBox="0 0 73 88" version="1.1" xmlns="http://www.w3.org/2000/svg" xmlns:xlink="http://www.w3.org/1999/xlink">
    <g id="Cultural-Dive-Ins---45&quot;" stroke="none" stroke-width="1" fill="none" fill-rule="evenodd">
        <g id="Rwanda:-1" transform="translate(-343.000000, -1715.000000)" fill="#A0A3A2" fill-rule="nonzero">
            <g id="Background">
                <g id="Text-LEAF" transform="translate(315.000000, 1684.000000)">
                    <g id="np_texting_74703_000000" transform="translate(28.000000, 31.000000)">
                        <path d="M46.4805529,72.1133197 L6.42012618,72.1133197 L6.42012618,6.67965694 L46.4805529,6.67965694 L46.4805529,10.5445581 L53,10.5445581 L53,3.99751341 C53,1.79799916 51.1476641,0 48.8730195,0 L4.12698054,0 C1.86002837,0 0,1.79790484 0,3.99751341 L0,84.0024866 C0,86.2020008 1.86002837,88 4.12698054,88 L48.8691245,88 C51.1436718,88 52.9961051,86.2020952 52.9961051,84.0024866 L53,48.8979749 L46.4804613,48.8979749 L46.4805529,72.1133197 Z M26.4965919,84.1578296 C24.0926353,84.1578296 22.152858,82.2640969 22.152858,79.9355545 C22.152858,77.6144634 24.0927326,75.7280875 26.4965919,75.7280875 C28.9004512,75.7280875 30.8480184,77.6144634 30.8480184,79.9355545 C30.8480184,82.2640969 28.9005486,84.1578296 26.4965919,84.1578296 Z" id="Shape"></path>
                        <path d="M61.2240572,14 L45.7720976,14 C39.2720656,14 34,19.1829922 34,25.5729929 L34,35.071617 C34,38.7964083 35.7986912,42.1003721 38.5811782,44.2193469 C37.9803648,45.8658002 36.823823,47.630384 35.1490436,49.5315264 C35.0288809,49.6681134 34.9537745,49.7714822 35.0889623,49.9117548 C38.1005275,50.4470365 41.352418,48.453554 43.7369263,46.4601754 C44.4015797,46.5746106 45.0812103,46.6447517 45.7759428,46.6447517 L61.2317476,46.6447517 C67.7317796,46.6447517 73,41.4654452 73,35.075539 L72.9962442,25.5731346 C72.9962442,19.1793538 67.7240825,14 61.2241466,14 L61.2240572,14 Z M45.1635938,33.0076438 C43.7253907,33.0076438 42.5538526,31.8521401 42.5538526,30.4382617 C42.5538526,29.0243833 43.7254868,27.8688796 45.1635938,27.8688796 C46.605546,27.8688796 47.7771802,29.0243833 47.7771802,30.4382617 C47.7771802,31.8558257 46.605546,33.0076438 45.1635938,33.0076438 Z M53.4961548,33.0076438 C52.0579517,33.0076438 50.8825684,31.8521401 50.8825684,30.4382617 C50.8825684,29.0243833 52.0579517,27.8688796 53.4961548,27.8688796 C54.9343579,27.8688796 56.1097412,29.0243833 56.1097412,30.4382617 C56.1097412,31.8558257 54.9343579,33.0076438 53.4961548,33.0076438 Z M61.8287158,33.0076438 C60.3867636,33.0076438 59.2151294,31.8521401 59.2151294,30.4382617 C59.2151294,29.0243833 60.3867636,27.8688796 61.8287158,27.8688796 C63.2669189,27.8688796 64.438466,29.0243833 64.438466,30.4382617 C64.4422118,31.8558257 63.270668,33.0076438 61.8287158,33.0076438 Z" id="Shape"></path>
                    </g>
                </g>
            </g>
        </g>
    </g>
</svg>